<svg id="Layer_1" data-name="Layer 1" xmlns="http://www.w3.org/2000/svg" viewBox="0 0 1008.49 665.3"><defs><style>.cls-1{fill:#8a8c8e;}.cls-2{fill:#292526;}.cls-3{fill:#595a5c;}</style></defs><title>GS_Logo_Transparent</title><path class="cls-1" d="M649.39,331.4c-3-16.09-14-29.45-26.79-39.14-13.5-9.57-30.16-13.1-46.28-15.29-24.63-3.07-49.6-2.46-74.19.64-10.49.5-21.33,2.75-31.56-.68-7.93-2.63-15.64-7.65-19.27-15.43-4-8.38-3.5-18-2.55-27,6.24,3.84,13.33,6,20.39,7.84a132.07,132.07,0,0,0,50.58,1.54,100,100,0,0,0,56.11-29.68,77.11,77.11,0,0,0,19.32-38.59c3.35-18.11,2.06-37.43-5.67-54.3a83.25,83.25,0,0,0-23-30.06c-10.37-10.12-24.37-15.51-38.27-18.75-23.87-5-49.6-4.1-72.09,6-16.32,7.42-31.15,18.83-41.2,33.81-11.4,17-14.94,38.44-12,58.49,2.76,18.46,12.42,35.36,25.35,48.6-10,18.09-14.07,39.92-9.05,60.15,4.17,14.58,18.33,22.67,31.11,28.8-13.94,12.5-28.87,24.86-37.75,41.69-8.25,15.59-8.23,35.05-.61,50.87,6,12.37,16.8,21.78,28.94,27.86,21.82,11.27,47,13.74,71.2,12.46,18.4-.7,36.35-5.28,53.83-10.77a137.35,137.35,0,0,0,46.27-23.82c10.5-8.43,20.68-17.67,27.77-29.25C648.39,363.81,652.16,347.18,649.39,331.4ZM448.1,144.62c.39-12.35,2.19-25,8-36.07a37.76,37.76,0,0,1,24-19.15,59.52,59.52,0,0,1,37.63,2.73c13.1,5.6,22.24,17.79,27,30.91,6.22,17.39,6.92,36.28,5.34,54.52-1.56,14.69-5.91,30.41-17.64,40.29s-28,11.06-42.48,8.8c-11.86-1.7-23.23-8-29.83-18.18A96.74,96.74,0,0,1,482.53,193c8.15-4.37,17.51-6.06,26.68-6.29A25.69,25.69,0,0,1,526.82,193c3.69,2.78,6.16,7.09,10.39,9.13,2.72.43,2.18-2.69,1.61-4.34-2.15-5.94-5.86-11.17-9.56-16.23-1.78-2.17-3.38-4.71-5.88-6.11-4.74-1.49-9.83-1-14.69-.51-19.42,2.42-38.07,9.43-55.05,19C448.32,178.07,447.91,161.16,448.1,144.62Zm167,227.25a45.78,45.78,0,0,1-10.32,15.27c-1.52,1.46-3.09,2.9-4.68,4.29-10.33,9-22.14,16.51-35.29,20.62a193.21,193.21,0,0,1-58.66,8.34c-15.95-.71-31.43-6.32-45-14.64-9.68-5.91-18.1-14.55-21.93-25.4a49.77,49.77,0,0,1,2.07-37.6c4.82-10.62,12.34-19.59,19.6-28.61.81-1,1.6-2,2.39-3,19.89,2.62,39.93-.83,59.88-.68,13.4.08,26.83.49,40.11,2.38,8.94,1.37,18.09,3.09,26.05,7.58A128.15,128.15,0,0,1,607,332.77c5,4.19,9.16,9.76,10.45,16.3a35.15,35.15,0,0,1,.76,6.6A40.28,40.28,0,0,1,615.09,371.87Z" transform="translate(-22.4 -26.36)"/><path class="cls-1" d="M472,313a5,5,0,0,1,1.32.18A5,5,0,0,0,472,313Z" transform="translate(-22.4 -26.36)"/><path class="cls-1" d="M545.65,26.36c4.58,8.25,7.19,17.92,13.91,24.89,1.66,2,4.63,1.83,6.58.33,7-4.81,12-12,17.12-18.63-.44,8.55-1.37,17.27.51,25.72.55,3.56,3.72,6.62,7.47,6.26,9-.3,17.42-3.77,25.76-6.77-4.34,5.86-8.83,11.71-11.9,18.36-.9,2.19-1.93,4.55-1.47,7,1,2.57,4,3.4,6.28,4.35,8,2.56,16.37,3.46,24.68,4.33-12.4,4.6-24.91,9-37.4,13.29-3.63-5.5-6.77-11.62-11.34-16.57C575.37,76.3,560,68.64,544.14,65.56c.37-13.07,1-26.14,1.51-39.2Z" transform="translate(-22.4 -26.36)"/><path class="cls-2" d="M203.19,558l.52-2.31c-.31,3.36,3,2.14,5.12,2.21,6.57,12.37,12.77,25,18.94,37.57,6.19-12.56,12.58-25,18.95-37.49,3.92,0,7.84,0,11.76,0q0,25.81,0,51.62H248.17c0-11.17,0-22.34,0-33.51q-8.37,16.77-16.85,33.51h-7.15c-5.6-11.12-11.12-22.28-16.72-33.39q0,16.69,0,33.39H197.11q0-25.82,0-51.63Z" transform="translate(-22.4 -26.36)"/><path class="cls-2" d="M311.21,555.61c.36.59,1.06,1.77,1.41,2.36,1.58,0,3.18,0,4.77,0,6.21,12.49,12.62,24.9,18.72,37.45,6.14-12.56,12.6-24.95,18.87-37.44,3.94-.06,7.88-.05,11.81,0q0,25.8,0,51.62H356.54q0-16.77,0-33.53c-5.72,11.14-11.24,22.39-17,33.54l-7.15,0q-8.35-16.7-16.71-33.39,0,16.7,0,33.4H305.43q-.06-25.83,0-51.64l6.09,0-.3-2.32Z" transform="translate(-22.4 -26.36)"/><path class="cls-2" d="M30.14,565.52c5.92-6,14.69-8.52,23-8,6.55.21,13.35,2.52,17.57,7.76-1.61,2.27-3.22,4.53-5,6.71-8.07-8.13-24.4-7.53-30.23,3-3.76,7-3.46,17,2.68,22.59,6.18,5.07,14.92,4.64,22.27,2.9,0-3.42,0-6.84,0-10.25H47.6q0-4.55,0-9.08c7.77,0,15.55,0,23.32,0q0,12.74,0,25.48a49.08,49.08,0,0,1-26.89,3.58c-7.51-1.12-15-5.16-18.57-12.1-5.36-10.36-3.7-24.26,4.66-32.59Z" transform="translate(-22.4 -26.36)"/><path class="cls-2" d="M560.13,564.52c4.38-5.22,11.57-7,18.13-7s13.8,1.39,17.68,7.07l-5.53,6.78c-4-4.82-10.9-5.48-16.67-4.28-2.29.59-5.26,1.76-5.54,4.48-.28,2.2,1.73,3.71,3.41,4.71,7.15,4,16,4.93,22,10.93a12.66,12.66,0,0,1,.38,17.23c-4.55,4.78-11.54,6.05-17.86,6.3-7.18.27-15.23-1.8-19.48-8.05,1.79-2.29,3.57-4.59,5.36-6.87,4.36,5.75,12.43,6.8,19.06,5.24,2.19-.6,4.9-1.82,5.21-4.37.6-2.64-1.94-4.38-3.93-5.45-6.88-3.51-15.16-4.48-21-9.86a12.38,12.38,0,0,1-1.23-16.81Z" transform="translate(-22.4 -26.36)"/><path class="cls-2" d="M117.05,558h35.24c0,3,0,6,0,9.07-8.29,0-16.58,0-24.86,0,0,3.86,0,7.72,0,11.59h23.48q0,4.53,0,9.08H127.44c0,4.26,0,8.52,0,12.79,8.55.07,17.11-.09,25.65.07.71,2.81.1,6,.28,9h-36.3q0-25.82,0-51.63Z" transform="translate(-22.4 -26.36)"/><path class="cls-2" d="M640.35,558.33h10.44c.08,11.06-.08,22.13.07,33.19,0,3.9,2.27,7.94,6.13,9.21,4.3,1.4,9.36,1.4,13.37-.91,3.2-1.83,4.85-5.6,4.83-9.19.08-10.76,0-21.53,0-32.29h10.46c-.17,10.75,0,21.5-.1,32.25-.08,5.76-2.15,11.83-6.84,15.45-5.5,4.33-12.88,5.05-19.63,4.54-5.32-.42-10.87-2.27-14.41-6.45-3.44-4-4.34-9.4-4.35-14.48,0-10.44,0-20.87,0-31.31Z" transform="translate(-22.4 -26.36)"/><path class="cls-2" d="M726.11,558h44.06V567c-5.63,0-11.25,0-16.87,0q0,21.27,0,42.55H742.92q0-21.29,0-42.55H726.11q0-4.54,0-9.08Z" transform="translate(-22.4 -26.36)"/><path class="cls-2" d="M806.28,558h44.07q0,4.53,0,9.07c-5.65,0-11.29,0-16.94,0q0,21.27,0,42.54H823.05q0-21.29,0-42.55H806.29q0-4.54,0-9.07Z" transform="translate(-22.4 -26.36)"/><path class="cls-2" d="M983.61,609.58q0-25.82,0-51.63h10.54c8.79,11.86,17.5,23.79,26.3,35.65,0-11.88,0-23.76,0-35.64,3.46,0,6.93,0,10.41,0,0,17.21,0,34.41,0,51.61h-10.63c-8.77-11.76-17.46-23.58-26.22-35.34q0,17.67,0,35.33Z" transform="translate(-22.4 -26.36)"/><path class="cls-2" d="M933.75,566c-7.1-8.07-19-9.92-29-7.72-8.44,1.76-16,7.94-18.6,16.25-3,9.33-1.73,20.59,5,28,5.79,6.26,14.73,8.56,23,8.08,8.2-.25,16.66-3.84,21.32-10.82C942.09,589.81,941.58,575.25,933.75,566Zm-7.1,28.11c-4.46,8-15.86,9.42-23.45,5.35-11.84-6.87-10-28.19,3.48-32.16,6.89-2,15.66-.44,19.65,6A22.14,22.14,0,0,1,926.65,594.14Z" transform="translate(-22.4 -26.36)"/><path class="cls-2" d="M438.81,558.35c-3.13,0-6.27,0-9.4,0Q417.67,584.16,405.88,610c3.79,0,7.57,0,11.36,0q2.81-6.45,5.58-12.92c7.39,0,14.77,0,22.16,0,2,4.3,3.9,8.65,5.88,13,3.84,0,7.68,0,11.52,0C454.54,592.74,446.64,575.56,438.81,558.35ZM426.68,588c2.43-5.5,4.89-11,7.34-16.48,2.42,5.46,4.71,11,7.05,16.49Z" transform="translate(-22.4 -26.36)"/><path class="cls-3" d="M361.17,662.58h3.95q0,13,0,26c5.36,0,10.71,0,16.06,0v3h-20v-29Z" transform="translate(-22.4 -26.36)"/><path class="cls-3" d="M477,662.59l4.69,0c6.18,8.25,12.53,16.37,18.59,24.72q0-12.36,0-24.71h3.87v29c-1.56,0-3.11,0-4.65,0-6.28-8.11-12.6-16.2-18.54-24.55.12,8.18,0,16.36,0,24.54h-4q0-14.49,0-29Z" transform="translate(-22.4 -26.36)"/><path class="cls-3" d="M667,662.59l4.69,0c6.18,8.25,12.52,16.37,18.59,24.7q0-12.35,0-24.69h3.87v29c-1.56,0-3.11,0-4.65,0-6.3-8.08-12.53-16.22-18.56-24.5.17,8.16,0,16.33.07,24.49h-4q0-14.49,0-29Z" transform="translate(-22.4 -26.36)"/><path class="cls-3" d="M437.81,665.92c-4-3.12-9.47-3.9-14.39-3.09a16.46,16.46,0,0,0-7.76,3.3c-6.79,5.41-6.62,17.36.46,22.45a19.92,19.92,0,0,0,20.51.46C444.53,684.34,445,671.47,437.81,665.92Zm-5.63,21.68c-4.94,2-11.41,1.23-15-3-4.67-5.94-2.25-16.28,5.35-18.43a14,14,0,0,1,11,1C440.93,671.47,440.21,684.47,432.18,687.6Z" transform="translate(-22.4 -26.36)"/><path class="cls-3" d="M562.21,665.54c-6.62-3.6-14.39-2.94-21.65-2.95q0,14.49,0,29c7.44-.14,15.67,1.09,22.18-3.39C570.35,683.21,570.27,670,562.21,665.54Zm-3.06,21c-4.43,2.68-9.78,2-14.72,2q0-11.49,0-23c5.57-.07,11.8-.41,16.5,3.14C565.84,673.42,565.33,683.09,559.15,686.51Z" transform="translate(-22.4 -26.36)"/><path class="cls-3" d="M627.78,665.9c-4-3.12-9.52-3.89-14.45-3a16.27,16.27,0,0,0-7.67,3.28c-6.78,5.41-6.62,17.33.44,22.43a19.93,19.93,0,0,0,20.51.49C634.54,684.35,635,671.44,627.78,665.9Zm-5.63,21.71c-4.95,2-11.42,1.21-14.95-3-4.64-5.94-2.23-16.23,5.34-18.39a14,14,0,0,1,11.06,1.06C630.94,671.52,630.19,684.5,622.15,687.61Z" transform="translate(-22.4 -26.36)"/></svg>